<svg width="17" height="16" viewBox="0 0 17 16" fill="none" xmlns="http://www.w3.org/2000/svg">
<path d="M14.875 6.6665C14.875 11.3332 8.5 15.3332 8.5 15.3332C8.5 15.3332 2.125 11.3332 2.125 6.6665C2.125 5.0752 2.79665 3.54908 3.99219 2.42386C5.18774 1.29864 6.80924 0.666504 8.5 0.666504C10.1908 0.666504 11.8123 1.29864 13.0078 2.42386C14.2033 3.54908 14.875 5.0752 14.875 6.6665Z" stroke="#A1A4B1" stroke-linecap="round" stroke-linejoin="round"/>
<path d="M8.5 8.6665C9.67361 8.6665 10.625 7.77107 10.625 6.6665C10.625 5.56193 9.67361 4.6665 8.5 4.6665C7.3264 4.6665 6.375 5.56193 6.375 6.6665C6.375 7.77107 7.3264 8.6665 8.5 8.6665Z" stroke="#A1A4B1" stroke-linecap="round" stroke-linejoin="round"/>
</svg>
